<?xml version="1.0" encoding="iso-8859-1"?>
<!-- Generator: Adobe Illustrator 19.0.0, SVG Export Plug-In . SVG Version: 6.00 Build 0)  -->
<svg version="1.1" id="Capa_1" xmlns="http://www.w3.org/2000/svg" xmlns:xlink="http://www.w3.org/1999/xlink" x="0px" y="0px"
	 viewBox="0 0 512.103 512.103" style="enable-background:new 0 0 512.103 512.103;" xml:space="preserve">
<g>
	<g>
		<g>
			<path d="M375.539,29.622c-36.816-19.43-77.815-29.589-119.444-29.596c-35.895-0.063-71.397,7.467-104.176,22.096l12.976,29.216
				c79.386-35.337,172.057-21.452,237.6,35.6l-66.4,66.464V80.026h-32v70.112l-32,16v-54.112h-32v54.112L208.8,150.426l0.304-70.4
				l-32-0.128l-1.008,233.488L87.008,402.49c-60.61-69.63-72.167-169.362-29.088-251.008l-28.272-14.944
				c-65.991,125.039-18.124,279.9,106.916,345.892s279.9,18.124,345.892-106.916S500.579,95.614,375.539,29.622z M208.656,186.202
				l47.44,23.712l48-24v44.224l-48,24L208.48,230.33L208.656,186.202z M208.32,266.026l47.776,23.888l48-24v44.224l-48,24l-48-24
				L208.32,266.026z M403.216,424.899c-36.644,31.87-82.673,50.936-131.12,54.311v-31.184h-32v31.184
				c-48.205-3.4-93.997-22.387-130.464-54.096l85.664-85.616l44.8,22.4v54.128h32v-54.112l64-32v-131.2l89.088-89.088
				C506.178,202.752,496.342,343.905,403.216,424.899z"/>
			<path d="M138.624,65.258l-16.816-27.2c-9.673,5.969-18.941,12.57-27.744,19.76l20.256,24.784
				C122.035,76.298,130.154,70.504,138.624,65.258z"/>
			<path d="M92.512,102.986L69.168,81.098c-7.785,8.315-15.006,17.14-21.616,26.416l26.144,18.56
				C79.453,117.972,85.739,110.26,92.512,102.986z"/>
		</g>
	</g>
</g>
<g>
</g>
<g>
</g>
<g>
</g>
<g>
</g>
<g>
</g>
<g>
</g>
<g>
</g>
<g>
</g>
<g>
</g>
<g>
</g>
<g>
</g>
<g>
</g>
<g>
</g>
<g>
</g>
<g>
</g>
</svg>
