<?xml version="1.0" encoding="iso-8859-1"?>
<!-- Generator: Adobe Illustrator 19.0.0, SVG Export Plug-In . SVG Version: 6.00 Build 0)  -->
<svg version="1.1" id="Capa_1" xmlns="http://www.w3.org/2000/svg" xmlns:xlink="http://www.w3.org/1999/xlink" x="0px" y="0px"
	 viewBox="0 0 512 512" style="enable-background:new 0 0 512 512;" xml:space="preserve">
<g>
	<g>
		<g>
			<path d="M512,303.76v-32h-64.688c-2.078-36.677-12.264-72.437-29.824-104.704l71.68-50.192l-18.336-26.208L400,140.176
				c-20.204-27.383-47.237-48.987-78.4-62.656l10.784-32.368l55.488-13.872l-7.76-31.04L307.6,18.368l-16.4,49.328
				c-23.141-5.248-47.163-5.248-70.304,0L204.4,18.368L131.888,0.24l-7.776,31.04L179.6,45.152l10.8,32.368
				c-31.163,13.669-58.196,35.273-78.4,62.656l-70.832-49.52l-18.336,26.208l71.68,50.192
				c-17.56,32.267-27.746,68.027-29.824,104.704H0v32h64.688c2.078,36.677,12.264,72.437,29.824,104.704l-71.68,50.192
				l18.336,26.208L112,435.344c33.19,46.839,86.607,75.186,144,76.416c57.393-1.23,110.81-29.577,144-76.416l70.768,49.52
				l18.336-26.208l-71.68-50.192c17.583-32.262,27.791-68.022,29.888-104.704H512z M240,478.784
				C159.264,469.12,96,387.152,96,287.76c0.014-21.671,3.155-43.227,9.328-64H240V478.784z M117.648,191.76
				c27.712-57.296,79.28-96,138.352-96s110.64,38.704,138.352,96H117.648z M272,478.784V223.76h134.672
				c6.173,20.773,9.314,42.329,9.328,64C416,387.152,352.736,469.12,272,478.784z"/>
			<rect x="176" y="255.76" width="32" height="32"/>
			<rect x="144" y="319.76" width="32" height="32"/>
			<rect x="176" y="383.76" width="32" height="32"/>
			<rect x="304" y="255.76" width="32" height="32"/>
			<rect x="336" y="319.76" width="32" height="32"/>
			<rect x="304" y="383.76" width="32" height="32"/>
		</g>
	</g>
</g>
<g>
</g>
<g>
</g>
<g>
</g>
<g>
</g>
<g>
</g>
<g>
</g>
<g>
</g>
<g>
</g>
<g>
</g>
<g>
</g>
<g>
</g>
<g>
</g>
<g>
</g>
<g>
</g>
<g>
</g>
</svg>
