<?xml version="1.0" encoding="iso-8859-1"?>
<!-- Generator: Adobe Illustrator 19.0.0, SVG Export Plug-In . SVG Version: 6.00 Build 0)  -->
<svg version="1.1" id="Capa_1" xmlns="http://www.w3.org/2000/svg" xmlns:xlink="http://www.w3.org/1999/xlink" x="0px" y="0px"
	 viewBox="0 0 500.316 500.316" style="enable-background:new 0 0 500.316 500.316;" xml:space="preserve">
<g>
	<g>
		<g>
			<path d="M372.316,238.252h-78.784l42.368-73.36c13.26-22.955,5.401-52.313-17.554-65.573c-0.015-0.009-0.031-0.018-0.046-0.027
				l-12.416-7.168l-16,27.728l12.416,7.152c4.951,2.881,7.997,8.176,8,13.904c0.014,2.81-0.727,5.573-2.144,8l-70.064,121.344
				h134.224v32H219.628l-25.6,44.288c-4.547,7.493-14.189,10.075-21.872,5.856l-128.96-74.48c-4.96-2.864-8.011-8.16-8-13.888
				c-0.01-2.81,0.73-5.572,2.144-8l42.176-72.912l72-124.8c4.55-7.473,14.184-10.028,21.84-5.792l33.392,19.328l16-27.712
				l-33.424-19.312c-17.524-10.232-39.629-8.106-54.88,5.28l-30.4-17.6C81.09-0.752,51.731,7.107,38.471,30.062
				c-0.009,0.015-0.018,0.031-0.027,0.046l-32,55.408c-13.26,22.955-5.401,52.313,17.554,65.573
				c0.015,0.009,0.031,0.018,0.046,0.027l27.712,16L9.628,240.06c-13.26,22.955-5.401,52.313,17.554,65.573
				c0.015,0.009,0.031,0.018,0.046,0.027l129.008,74.48c22.955,13.26,52.313,5.401,65.573-17.554
				c0.009-0.015,0.018-0.031,0.027-0.046l16.256-28.288h134.224v32h32v-160h-32V238.252z M40.028,123.388
				c-7.643-4.418-10.263-14.191-5.856-21.84l32-55.424c4.418-7.652,14.203-10.274,21.856-5.856l27.712,16l-5.04,8.72l-42.96,74.4
				L40.028,123.388z"/>
			<rect x="240.321" y="66" transform="matrix(0.8658 0.5003 -0.5003 0.8658 75.4104 -117.2425)" width="32" height="31.984"/>
			<rect x="436.316" y="270.252" width="32" height="32"/>
			<rect x="468.316" y="334.252" width="32" height="32"/>
			<rect x="468.316" y="398.252" width="32" height="32"/>
			<rect x="468.316" y="462.252" width="32" height="32"/>
			
				<rect x="76.272" y="257.575" transform="matrix(-0.8661 -0.4999 0.4999 -0.8661 108.9869 576.3486)" width="110.848" height="32"/>
		</g>
	</g>
</g>
<g>
</g>
<g>
</g>
<g>
</g>
<g>
</g>
<g>
</g>
<g>
</g>
<g>
</g>
<g>
</g>
<g>
</g>
<g>
</g>
<g>
</g>
<g>
</g>
<g>
</g>
<g>
</g>
<g>
</g>
</svg>
