<?xml version="1.0" encoding="iso-8859-1"?>
<!-- Generator: Adobe Illustrator 19.0.0, SVG Export Plug-In . SVG Version: 6.00 Build 0)  -->
<svg version="1.1" id="Capa_1" xmlns="http://www.w3.org/2000/svg" xmlns:xlink="http://www.w3.org/1999/xlink" x="0px" y="0px"
	 viewBox="0 0 511.976 511.976" style="enable-background:new 0 0 511.976 511.976;" xml:space="preserve">
<g>
	<g>
		<g>
			<path d="M492.748,330.408c-43.375-27.105-100.176-17.427-132.128,22.512l-14.208,17.76l-73.216,29.296h-18.544
				c3.65-7.477,5.569-15.68,5.616-24c0-30.928-25.072-56-56-56h-91.776l-64,32H4.268v32h51.776l64-32h84.224
				c13.255,0,24,10.745,24,24s-10.745,24-24,24h-72v32H279.34l86.784-34.704l19.488-24.368c17.752-21.77,46.83-30.769,73.776-22.832
				l-65.6,85.232l-89.296,44.672H68.268v32h243.776l102.672-51.328l92.992-120.896L492.748,330.408z"/>
			<rect x="4.268" y="479.976" width="32" height="32"/>
			<path d="M350.62,138.328c-1.024,1.04-2.08,2.016-3.2,2.944l20.624,24.464c1.792-1.504,3.52-3.104,5.2-4.8
				c7.451-7.568,13.55-16.356,18.032-25.984l-28.912-13.712C359.467,127.572,355.494,133.354,350.62,138.328z"/>
			<path d="M244.268,127.976v160h32v-96.128c1.888,0,3.68,0.128,5.792,0.128c17.972,0.173,35.856-2.528,52.976-8l-10.352-30.288
				c-15.624,4.861-31.975,6.962-48.32,6.208c0-1.76-0.096-3.664-0.096-5.696c-1.457-24.737,6.25-49.144,21.648-68.56
				c19.413-15.404,43.821-23.116,68.56-21.664c2.016,0,3.92,0,5.696,0.096c0,1.76,0.096,3.664,0.096,5.696
				c0.029,8.441-0.64,16.869-2,25.2l31.568,5.264c1.64-10.071,2.453-20.26,2.432-30.464c0.04-7.648-0.42-15.291-1.376-22.88
				L401.18,35.08l-11.824-1.728c-7.589-0.957-15.232-1.416-22.88-1.376c-33.266-1.845-65.953,9.268-91.2,31.008
				c-0.816,0.832-1.44,1.76-2.224,2.608c-3.03-15.46-10.388-29.741-21.216-41.184c-31.312-31.328-86.608-23.68-88.96-23.36
				L151.052,2.76l-1.712,11.824c-0.336,2.336-8,57.6,23.36,88.96C192.545,120.556,218.163,129.301,244.268,127.976z M180.268,31.976
				c17.611-1.126,35.024,4.242,48.944,15.088c10.824,13.918,16.18,31.316,15.056,48.912c-17.611,1.126-35.024-4.242-48.944-15.088
				C184.5,66.97,179.144,49.572,180.268,31.976z"/>
		</g>
	</g>
</g>
<g>
</g>
<g>
</g>
<g>
</g>
<g>
</g>
<g>
</g>
<g>
</g>
<g>
</g>
<g>
</g>
<g>
</g>
<g>
</g>
<g>
</g>
<g>
</g>
<g>
</g>
<g>
</g>
<g>
</g>
</svg>
