<?xml version="1.0" encoding="iso-8859-1"?>
<!-- Generator: Adobe Illustrator 19.0.0, SVG Export Plug-In . SVG Version: 6.00 Build 0)  -->
<svg version="1.1" id="Capa_1" xmlns="http://www.w3.org/2000/svg" xmlns:xlink="http://www.w3.org/1999/xlink" x="0px" y="0px"
	 viewBox="0 0 511.706 511.706" style="enable-background:new 0 0 511.706 511.706;" xml:space="preserve">
<g>
	<g>
		<g>
			
				<rect x="340.779" y="223.098" transform="matrix(-0.5811 -0.8138 0.8138 -0.5811 369.5396 668.3834)" width="32" height="31.984"/>
			<path d="M397.372,338.461c1.741,7.773,2.621,15.714,2.624,23.68c0,61.856-50.144,112-112,112s-112-50.144-112-112
				c0.083-23.177,7.443-45.743,21.04-64.512l90.96-127.264l27.888,39.04l26.032-18.592l-53.92-75.584L171.004,279.037
				c-17.49,24.186-26.937,53.257-27.008,83.104c0,79.529,64.471,144,144,144s144-64.471,144-144
				c0.006-10.323-1.131-20.615-3.392-30.688L397.372,338.461z"/>
			<path d="M387.852,312.253l28.496-14.576c-3.325-6.483-7.122-12.713-11.36-18.64l-7.28-10.192l-26.032,18.592l7.264,10.192
				C382.274,302.273,385.253,307.162,387.852,312.253z"/>
			<path d="M315.733,401.476c-8.096,5.777-17.792,8.884-27.737,8.889c-17.949,0.186-34.435-9.874-42.48-25.92l-28.448,14.656
				c20.145,39.184,68.241,54.618,107.425,34.472c39.184-20.145,54.618-68.241,34.472-107.425c-1.775-3.452-3.799-6.77-6.057-9.928
				l-26.032,18.592C342.207,356.299,337.218,386.145,315.733,401.476z"/>
			<path d="M173.73,226.602c2.79-3.887,5.286-7.977,7.466-12.237h0.032c16.516-31.906,13.721-70.383-7.232-99.568l-78-109.232
				l-78,109.232c-30.874,43.005-21.04,102.896,21.965,133.77C82.966,279.441,142.857,269.607,173.73,226.602z M152.78,199.725
				c-10.76,21.443-32.794,34.884-56.784,34.64c-35.267,0.005-63.86-28.58-63.865-63.847c-0.002-13.314,4.158-26.296,11.897-37.129
				l51.968-72.752l51.968,72.752C162.101,152.769,163.969,178.507,152.78,199.725z"/>
			<path d="M491.004,185.533L399.996,58.141l-59.92,83.872l26.032,18.608l33.888-47.44l64.976,90.944
				c24.438,34.596,17.783,82.226-15.2,108.8l20.096,24.912C516.072,300.642,525.334,233.905,491.004,185.533z"/>
		</g>
	</g>
</g>
<g>
</g>
<g>
</g>
<g>
</g>
<g>
</g>
<g>
</g>
<g>
</g>
<g>
</g>
<g>
</g>
<g>
</g>
<g>
</g>
<g>
</g>
<g>
</g>
<g>
</g>
<g>
</g>
<g>
</g>
</svg>
