<?xml version="1.0" encoding="iso-8859-1"?>
<!-- Generator: Adobe Illustrator 19.0.0, SVG Export Plug-In . SVG Version: 6.00 Build 0)  -->
<svg version="1.1" id="Capa_1" xmlns="http://www.w3.org/2000/svg" xmlns:xlink="http://www.w3.org/1999/xlink" x="0px" y="0px"
	 viewBox="0 0 512 512" style="enable-background:new 0 0 512 512;" xml:space="preserve">
<g>
	<g>
		<g>
			<rect y="244.896" width="208" height="32"/>
			<rect x="240" y="244.896" width="32" height="32"/>
			<rect x="208" y="308.896" width="32" height="32"/>
			<rect y="308.896" width="176" height="32"/>
			<rect y="372.896" width="144" height="32"/>
			<rect x="176" y="372.896" width="32" height="32"/>
			<rect y="436.896" width="112" height="32"/>
			<rect x="144" y="436.896" width="32" height="32"/>
			<path d="M446.896,180.896c-8.78-70.083-72.711-119.778-142.794-110.998c-58.026,7.27-103.728,52.972-110.998,110.998H0v32
				h327.904L209.248,494.688l29.504,12.416l123.872-294.208h37.28L281.248,494.688l29.504,12.416l123.872-294.208h37.28
				L353.248,494.688l29.504,12.416l123.872-294.208H512v-32H446.896z M225.44,180.896c8.783-52.224,58.239-87.44,110.463-78.657
				c40.302,6.778,71.879,38.355,78.657,78.657H225.44z"/>
			<rect x="304" y="4.896" width="32" height="32"/>
			<rect x="223.998" y="26.333" transform="matrix(0.4999 0.8661 -0.8661 0.4999 156.6812 -186.6854)" width="32" height="32"/>
			<rect x="165.432" y="84.901" transform="matrix(0.8661 0.4999 -0.4999 0.8661 74.7413 -77.1882)" width="32" height="32"/>
			<rect x="442.561" y="84.875" transform="matrix(0.4999 0.8661 -0.8661 0.4999 316.6827 -346.7012)" width="32" height="32"/>
			<rect x="384.01" y="26.337" transform="matrix(0.8661 0.4999 -0.4999 0.8661 74.738 -194.3029)" width="32" height="32"/>
		</g>
	</g>
</g>
<g>
</g>
<g>
</g>
<g>
</g>
<g>
</g>
<g>
</g>
<g>
</g>
<g>
</g>
<g>
</g>
<g>
</g>
<g>
</g>
<g>
</g>
<g>
</g>
<g>
</g>
<g>
</g>
<g>
</g>
</svg>
