<?xml version="1.0" encoding="iso-8859-1"?>
<!-- Generator: Adobe Illustrator 19.0.0, SVG Export Plug-In . SVG Version: 6.00 Build 0)  -->
<svg version="1.1" id="Capa_1" xmlns="http://www.w3.org/2000/svg" xmlns:xlink="http://www.w3.org/1999/xlink" x="0px" y="0px"
	 viewBox="0 0 512 512" style="enable-background:new 0 0 512 512;" xml:space="preserve">
<g>
	<g>
		<g>
			<path d="M118.704,205.328l75.376,34.8c27.585,12.749,60.283,0.722,73.032-26.863c12.091-26.162,1.947-57.221-23.256-71.201
				L189.744,112h79.184l73.216,29.296l14.208,17.76c31.952,39.939,88.753,49.617,132.128,22.512l14.944-9.344L410.448,51.328
				L307.776,0H0v32h300.224l89.328,44.672l65.6,85.232c-26.955,8.215-56.195-0.839-73.792-22.848l-19.504-24.352L275.072,80h-85.328
				c-17.673,0.008-31.994,14.341-31.986,32.014c0.005,11.613,6.301,22.311,16.45,27.954l54.112,30.064
				c11.055,6.284,14.922,20.34,8.638,31.394c-5.865,10.317-18.61,14.486-29.438,9.63l-70.224-32.384L86.624,128H0v32h73.376
				L118.704,205.328z"/>
			<path d="M320,352v64c0,35.346-28.654,64-64,64c-35.346,0-64-28.654-64-64v-64H0v32h160v32c0,53.019,42.981,96,96,96
				s96-42.981,96-96v-32h160v-32H320z"/>
			<rect x="288" y="256" width="32" height="32"/>
			<rect x="208" y="288" width="32" height="32"/>
			<rect x="256" y="352" width="32" height="32"/>
			<rect x="240" y="416" width="32" height="32"/>
		</g>
	</g>
</g>
<g>
</g>
<g>
</g>
<g>
</g>
<g>
</g>
<g>
</g>
<g>
</g>
<g>
</g>
<g>
</g>
<g>
</g>
<g>
</g>
<g>
</g>
<g>
</g>
<g>
</g>
<g>
</g>
<g>
</g>
</svg>
