<?xml version="1.0" encoding="iso-8859-1"?>
<!-- Generator: Adobe Illustrator 19.0.0, SVG Export Plug-In . SVG Version: 6.00 Build 0)  -->
<svg version="1.1" id="Capa_1" xmlns="http://www.w3.org/2000/svg" xmlns:xlink="http://www.w3.org/1999/xlink" x="0px" y="0px"
	 viewBox="0 0 512.026 512.026" style="enable-background:new 0 0 512.026 512.026;" xml:space="preserve" fill="#702c91">
<g>
	<g>
		<g>
			<path d="M503.358,415.789c-11.461-19.712-32.557-31.821-55.358-31.776c-2.854,0.093-5.698,0.382-8.512,0.864l-48.864-48.864H368
				v-32h32v-96H208v96h32v32h-38.624l-29.104,29.104l-22.256-102.4l-31.264,6.8l18.928,87.056c-8.249-2.929-16.927-4.47-25.68-4.56
				c-44.182-0.203-80.164,35.448-80.368,79.631c-0.203,44.182,35.448,80.164,79.631,80.368
				c25.527,0.118,49.578-11.955,64.737-32.494v0.496h216.896c17.735,30.503,56.84,40.854,87.343,23.119
				C510.743,485.397,521.094,446.292,503.358,415.789z M112,480.013c-26.51,0-48-21.49-48-48c0-26.51,21.49-48,48-48
				c26.51,0,48,21.49,48,48C160,458.523,138.51,480.013,112,480.013z M240,240.013h128v32H240V240.013z M336,304.013v32h-64v-32H336
				z M384,448.013H190.4c1.069-5.266,1.605-10.626,1.6-16c-0.05-11.657-2.678-23.158-7.696-33.68l30.32-30.32h162.752l30.528,30.528
				C392.858,410.563,384.069,428.754,384,448.013z M448,480.013c-17.673,0-32-14.327-32-32c0-17.673,14.327-32,32-32
				c17.673,0,32,14.327,32,32C480,465.686,465.673,480.013,448,480.013z"/>
			<rect x="94.592" y="140.736" transform="matrix(-0.9772 0.2124 -0.2124 -0.9772 251.9557 286.4016)" width="32" height="32"/>
			<rect x="108.189" y="203.268" transform="matrix(-0.9772 0.2124 -0.2124 -0.9772 292.122 407.1501)" width="32" height="32"/>
			<polygon points="84.752,113.229 116.016,106.429 92.896,0.013 0,0.013 0,32.013 67.104,32.013 			"/>
		</g>
	</g>
</g>
<g>
</g>
<g>
</g>
<g>
</g>
<g>
</g>
<g>
</g>
<g>
</g>
<g>
</g>
<g>
</g>
<g>
</g>
<g>
</g>
<g>
</g>
<g>
</g>
<g>
</g>
<g>
</g>
<g>
</g>
</svg>
