<?xml version="1.0" encoding="iso-8859-1"?>
<!-- Generator: Adobe Illustrator 19.0.0, SVG Export Plug-In . SVG Version: 6.00 Build 0)  -->
<svg version="1.1" id="Capa_1" xmlns="http://www.w3.org/2000/svg" xmlns:xlink="http://www.w3.org/1999/xlink" x="0px" y="0px"
	 viewBox="0 0 512.239 512.239" style="enable-background:new 0 0 512.239 512.239;" xml:space="preserve" fill="#702c91">
<g>
	<g>
		<g>
			<path d="M498.106,59.484l-0.112,0.048l-45.248-45.248c-18.541-18.835-48.841-19.074-67.677-0.532
				c-14.643,14.415-18.45,36.568-9.459,55.044L178.234,266.172l-48.576-48.576l-102.88,102.88
				C2.322,344.991-6.21,381.206,4.73,414.06l23.312,70.176l70.208,23.328c32.871,10.923,69.092,2.366,93.6-22.112L294.682,382.62
				l-48.576-48.576l40.528-40.512l-22.576-22.64l-102,102.016c-6.336,6.044-16.304,6.044-22.64,0
				c-6.252-6.245-6.258-16.376-0.013-22.627c0.004-0.004,0.008-0.008,0.013-0.013l256.8-256.8l22.64,22.64l-41.6,41.6l22.624,22.624
				l43.712-43.712c23.859,11.433,52.468,1.36,63.902-22.498C516.293,95.764,512.527,73.851,498.106,59.484z M116.746,327.644
				c-18.747,18.747-18.747,49.141,0,67.888s49.141,18.747,67.888,0l38.848-38.864l25.952,25.952l-80.16,80.16
				c-15.973,15.921-39.551,21.491-60.96,14.4l-54.96-18.256l-18.256-54.912c-7.094-21.409-1.525-44.989,14.4-60.96l80.16-80.208
				l25.952,25.952L116.746,327.644z M475.382,104.783c-0.004,0.004-0.008,0.008-0.013,0.013c-6.328,6.051-16.296,6.051-22.624,0
				l-45.264-45.264c-6.247-6.252-6.244-16.385,0.008-22.632c6.252-6.247,16.385-6.244,22.632,0.008l45.248,45.248
				C481.622,88.401,481.627,98.531,475.382,104.783z"/>
			<rect x="338.475" y="187.054" transform="matrix(-0.7071 -0.7071 0.7071 -0.7071 461.5467 597.287)" width="32" height="32"/>
			<rect x="293.273" y="232.263" transform="matrix(-0.7071 -0.7071 0.7071 -0.7071 352.413 642.501)" width="32" height="32"/>
		</g>
	</g>
</g>
<g>
</g>
<g>
</g>
<g>
</g>
<g>
</g>
<g>
</g>
<g>
</g>
<g>
</g>
<g>
</g>
<g>
</g>
<g>
</g>
<g>
</g>
<g>
</g>
<g>
</g>
<g>
</g>
<g>
</g>
</svg>
