<?xml version="1.0" encoding="iso-8859-1"?>
<!-- Generator: Adobe Illustrator 19.0.0, SVG Export Plug-In . SVG Version: 6.00 Build 0)  -->
<svg version="1.1" id="Capa_1" xmlns="http://www.w3.org/2000/svg" xmlns:xlink="http://www.w3.org/1999/xlink" x="0px" y="0px"
	 viewBox="0 0 512.01 512.01" style="enable-background:new 0 0 512.01 512.01;" xml:space="preserve" fill="#702c91">
<g>
	<g>
		<g>
			<rect x="320.005" y="480.01" width="32" height="32"/>
			<path d="M478.501,480.01c-5.446-31.447-26.129-58.147-55.216-71.28c-14.967-33.352-47.55-55.332-84.08-56.72
				c-14.32-24.779-38.969-41.858-67.2-46.56v-81.696c3.376,0.16,7.136,0.256,11.2,0.256c35.979,1.469,71.478-8.66,101.264-28.896
				l-19.504-25.328c-24.315,15.649-52.869,23.41-81.76,22.224c-4.08,0-7.776-0.112-10.96-0.288c-0.176-3.2-0.288-6.88-0.288-10.944
				c0-22.528,3.664-64,28.224-88.544s66.064-28.224,88.624-28.224c4.08,0,7.776,0.112,10.96,0.288
				c0.176,3.2,0.288,6.88,0.288,10.944c0.012,7.102-0.346,14.199-1.072,21.264l31.824,3.296c0.826-8.171,1.227-16.379,1.2-24.592
				c0.067-9.363-0.468-18.721-1.6-28.016l-1.728-11.824l-11.888-1.76c-9.283-1.14-18.631-1.675-27.984-1.6
				c-33.6,0-80,6.528-111.152,37.6c-3.694,3.704-7.101,7.684-10.192,11.904c-3.967-18.951-13.111-36.43-26.416-50.496
				C201.077-8.886,129.925,0.938,126.917,1.386l-11.824,1.712l-1.712,11.824c-0.432,3.008-10.256,74.192,29.632,114.08
				c25.368,21.626,58.053,32.721,91.344,31.008c2.064,0,3.808,0,5.648-0.128v145.6c-28.225,4.695-52.873,21.761-67.2,46.528
				c-36.53,1.367-69.126,23.329-84.112,56.672c-29.087,13.151-49.759,39.87-55.184,71.328H0.005v32h288v-32H66.261
				c5.37-20.349,20.376-36.773,40.16-43.952l7.088-2.544l2.544-7.088c9.077-25.339,33.037-42.29,59.952-42.416
				c0.601,0.029,1.2,0.098,1.792,0.208c1.088,0.144,2.176,0.288,3.28,0.384l11.52,0.96l4.528-10.624
				c13.853-32.518,51.444-47.65,83.963-33.797c15.208,6.478,27.319,18.59,33.797,33.797l4.528,10.624l11.52-0.96
				c1.104-0.096,2.192-0.24,3.28-0.384c0.592-0.11,1.191-0.179,1.792-0.208c26.915,0.126,50.875,17.078,59.952,42.416l2.544,7.088
				l7.088,2.544c19.784,7.179,34.79,23.602,40.16,43.952h-61.744v32h128v-32H478.501z M239.893,127.85
				c-18.704,0.592-54.128-1.344-74.24-21.488s-22.176-55.424-21.536-74.192c18.736-0.64,54.112,1.36,74.24,21.488
				S240.533,109.082,239.893,127.85z"/>
			<path d="M382.405,150.41l27.2,16.88c6.319-10.338,11.221-21.477,14.576-33.12l-30.736-9.168
				C390.916,133.926,387.203,142.471,382.405,150.41z"/>
		</g>
	</g>
</g>
<g>
</g>
<g>
</g>
<g>
</g>
<g>
</g>
<g>
</g>
<g>
</g>
<g>
</g>
<g>
</g>
<g>
</g>
<g>
</g>
<g>
</g>
<g>
</g>
<g>
</g>
<g>
</g>
<g>
</g>
</svg>
